<?xml version="1.0" encoding="utf-8"?>
<!-- Generator: Adobe Illustrator 17.0.0, SVG Export Plug-In . SVG Version: 6.00 Build 0)  -->
<!DOCTYPE svg PUBLIC "-//W3C//DTD SVG 1.1//EN" "http://www.w3.org/Graphics/SVG/1.1/DTD/svg11.dtd" [
	<!ENTITY ns_extend "http://ns.adobe.com/Extensibility/1.0/">
	<!ENTITY ns_ai "http://ns.adobe.com/AdobeIllustrator/10.0/">
	<!ENTITY ns_graphs "http://ns.adobe.com/Graphs/1.0/">
	<!ENTITY ns_vars "http://ns.adobe.com/Variables/1.0/">
	<!ENTITY ns_imrep "http://ns.adobe.com/ImageReplacement/1.0/">
	<!ENTITY ns_sfw "http://ns.adobe.com/SaveForWeb/1.0/">
	<!ENTITY ns_custom "http://ns.adobe.com/GenericCustomNamespace/1.0/">
	<!ENTITY ns_adobe_xpath "http://ns.adobe.com/XPath/1.0/">
]>
<svg version="1.1" xmlns:x="&ns_extend;" xmlns:i="&ns_ai;" xmlns:graph="&ns_graphs;"
	 xmlns="http://www.w3.org/2000/svg" xmlns:xlink="http://www.w3.org/1999/xlink" x="0px" y="0px" width="176.546px" height="216px"
	 viewBox="0 0 176.546 216" enable-background="new 0 0 176.546 216" xml:space="preserve">
<metadata>
	<sfw  xmlns="&ns_sfw;">
		<slices></slices>
		<sliceSourceBounds  width="2709.023" height="2165.403" y="-1116" x="-36" bottomLeftOrigin="true"></sliceSourceBounds>
	</sfw>
</metadata>
<g id="Background-1">
</g>
<g id="Layer_1">
	<linearGradient id="Glyph_2_" gradientUnits="userSpaceOnUse" x1="8.6835" y1="186.6309" x2="174.7153" y2="20.5991">
		<stop  offset="0" style="stop-color:#FBEFBF"/>
		<stop  offset="0.2058" style="stop-color:#FBEFBC"/>
		<stop  offset="0.3532" style="stop-color:#F9EEB3"/>
		<stop  offset="0.4821" style="stop-color:#F7EDA3"/>
		<stop  offset="0.5021" style="stop-color:#F6EDA0"/>
		<stop  offset="1" style="stop-color:#FAEEBC"/>
	</linearGradient>
	<path id="Glyph_1_" fill="url(#Glyph_2_)" d="M31.513,204.638c0-6.752,5.174-11.362,11.64-11.362c3.286,0,6.048,1.219,8.11,3.458
		l-0.874,0.725c-1.643-1.943-4.334-3.195-7.236-3.195c-5.837,0-10.417,4.183-10.417,10.374c0,6.126,4.579,10.374,10.417,10.374
		c2.901,0,5.593-1.251,7.236-3.195l0.909,0.691C49.096,214.848,46.44,216,43.154,216C36.687,216,31.513,211.389,31.513,204.638z
		 M55.633,215.605v-21.967h1.118v20.979h11.71v0.988H55.633z M72.027,207.272v-13.635h1.118v13.635c0,4.874,2.657,7.74,7.551,7.74
		c4.894,0,7.551-2.865,7.551-7.74v-13.635h1.119v13.635c0,5.434-3.006,8.728-8.669,8.728C75.034,216,72.027,212.674,72.027,207.272z
		 M95.518,215.605v-21.967h8.774c3.74,0,6.362,1.976,6.362,5.599c0,2.766-2.062,4.644-4.125,5.039
		c2.482,0.362,4.579,2.865,4.579,5.401c0,3.755-2.587,5.928-6.677,5.928H95.518z M109.431,199.237c0-2.503-1.713-4.611-5.138-4.611
		h-7.656v9.189h7.656C107.718,203.815,109.431,201.773,109.431,199.237z M109.885,209.71c0-2.503-1.818-4.907-5.453-4.907h-7.795
		v9.814h7.795C107.858,214.617,109.885,212.707,109.885,209.71z M115.303,215.605v-21.967h7.061v21.967H115.303z M141.8,215.605
		l-8.599-11.132v11.132h-7.061v-21.967h7.271l8.11,10.407v-10.407h7.061v21.967H141.8z M176.534,26.481
		C169.434,10.862,153.696,0,135.42,0H45.14C20.21,0,0,20.21,0,45.14v90.28c0,24.93,20.21,45.14,45.14,45.14h90.28
		c18.286,0,34.031-10.873,41.126-26.506c-3.197-10.442-8.235-20.078-14.738-28.53v9.848c0,14.609-11.843,26.452-26.452,26.452
		h-90.28c-14.609,0-26.452-11.843-26.452-26.452v-90.28c0-14.609,11.843-26.452,26.452-26.452h90.28
		c14.609,0,26.452,11.843,26.452,26.452v9.88C168.302,46.53,173.337,36.908,176.534,26.481z"/>
</g>
</svg>
